<svg xmlns="http://www.w3.org/2000/svg" viewBox="0 0 768.62 311.52"><defs><style>.cls-1{fill:#3279f3;}</style></defs><title>Asset 3</title><g id="Layer_2" data-name="Layer 2"><g id="Layer_1-2" data-name="Layer 1"><path class="cls-1" d="M186.83,7.87a56.85,56.85,0,0,1,19-7.22q9.24-1.56,16,.63a19,19,0,0,1,10.51,8.15q3.76,6,2.82,15.37A36.94,36.94,0,0,1,229,41.43Q223.84,49.27,214,54.92t-24.62,8.15q-14.75,2.52-34.82.63A319.38,319.38,0,0,0,142,95.22,381.82,381.82,0,0,0,131.31,133a317.65,317.65,0,0,1-12.39,39.68,228.08,228.08,0,0,1-15.53,32.46,108.88,108.88,0,0,0,11,10,105.69,105.69,0,0,0,14,9.56,58.87,58.87,0,0,0,14.59,6.12,20.06,20.06,0,0,0,13.17-.63q11-4.69,20.07-18.66t19.14-42.5q3.45-8.78,4.86-10.67t1.72,2.51a15.39,15.39,0,0,1-.47,5.34,73.1,73.1,0,0,1-2.66,9.09q-4.71,12.24-9.1,23.37A158.77,158.77,0,0,1,180.09,219a80.41,80.41,0,0,1-11.61,15.84,42.68,42.68,0,0,1-14.9,10.2,37.8,37.8,0,0,1-16,2.82,55.53,55.53,0,0,1-16.78-3.3,75.61,75.61,0,0,1-16.15-8.15,82.9,82.9,0,0,1-14.43-12.08q-13.17,16.32-27.29,24.16t-27.29,6.27a40.5,40.5,0,0,1-18-6.43,31.84,31.84,0,0,1-11.29-12.7A29.83,29.83,0,0,1,3.81,218.8q1.1-9.24,8.62-18.66A37.2,37.2,0,0,1,27,188.54a58.31,58.31,0,0,1,19-5,71.18,71.18,0,0,1,20.86,1.25,68.53,68.53,0,0,1,20.23,7.53q4.4-11.91,8.47-26.82t8.16-33.09A197.06,197.06,0,0,1,116.41,93a217.32,217.32,0,0,1,17.72-32.15q-3.45-.63-6.9-1.42t-6.9-1.72q-34.18-8.16-57.4-4.08T26.55,69Q13.37,80.33,9.61,95.85a55,55,0,0,0,.94,30.27,39,39,0,0,0,12.7,18.82A33.1,33.1,0,0,0,43,152.62q10.83.48,21.65-6.9T83,120.78a15,15,0,0,1,1.88-2.19,23,23,0,0,0,1.88-1.41,3,3,0,0,1,1.88-.79q3.76,0,.94,7.53-7.53,17.56-19.44,26t-24.31,8.93A39.66,39.66,0,0,1,22.16,152q-11.29-7.37-17.88-21.8Q.51,121.73,0,109.34A66.93,66.93,0,0,1,4.28,83.93a77.2,77.2,0,0,1,15-24.78Q29.68,47.39,47.41,39.86T91,30.92q25.88-1.41,61.32,6.43A156.74,156.74,0,0,1,171,19.16,137.27,137.27,0,0,1,186.83,7.87ZM41,247.5q10,.63,19.44-7.84t18.51-27.29q-13.17-11.91-27.13-14t-24,8.94a27.92,27.92,0,0,0-6.58,13.17,25.74,25.74,0,0,0,.62,12.7,21.25,21.25,0,0,0,6.75,9.88A20,20,0,0,0,41,247.5Zm149.3-233q-10.67,5.65-23.21,25.72,17.88,3.46,29.48,3.77t18.51-1.88q6.9-2.2,9.88-6.43a21.1,21.1,0,0,0,3.61-9.89A17.67,17.67,0,0,0,227,15.86a14.09,14.09,0,0,0-6.9-6.74q-4.71-2.19-12.24-1.25T190.28,14.45Z"/><path class="cls-1" d="M192.79,180.07q1.25-5.34,3.13-13.33t4.24-16.94q2.35-8.94,4.7-18.51t4.55-18.35q3.76-15,7.84-22.89t8.32-10.51A10.74,10.74,0,0,1,234.19,78,34.69,34.69,0,0,1,243,81.58a10.51,10.51,0,0,0,2.83,1.88l1.25.63q-.95,2.82-3.76,13.17t-7.06,26.19q-4.23,15.84-9.41,35.6t-10.51,41.41q-2.51,10.35-2,16c.32,3.77,1.2,6.23,2.67,7.37s3.19,1.21,5.18.16a15,15,0,0,0,5.48-5.65,184.05,184.05,0,0,0,12.24-23.68q6-13.64,11.29-28.23t9.72-28.54q4.39-13.95,7.53-24.94,3.76-15,7.84-22.89t8.31-10.51A10.77,10.77,0,0,1,293.16,78a40.2,40.2,0,0,1,9.1,3.61,6.63,6.63,0,0,0,1.41,1.09c.52.32,1,.58,1.41.79a3.62,3.62,0,0,1,.94.63q-.94,2.82-3.76,13.17t-7.06,26.19Q291,139.29,286,159.05t-10.36,41.41q-2.5,10.35-2.19,16t2.35,7.37c1.36,1.15,3,1.21,5,.16a15,15,0,0,0,5.49-5.65q3.14-4.7,5.49-9.09c1.57-2.93,3.18-6.17,4.86-9.73s3.45-7.47,5.33-11.76,4.08-9.46,6.59-15.52q7.22-17.25,7.21-7.53,0,3.45-4.39,14.11-3.45,8.16-5.8,13.8t-4.71,10.51c-1.56,3.25-3.24,6.43-5,9.57s-3.92,6.58-6.43,10.35q-7.23,11.61-16.16,15.53t-15.84-.95q-6.9-4.86-9.41-19t3.77-38.58a1.83,1.83,0,0,1,.31-1.26q-4.71,11.61-10,22.9T230.74,223q-7.22,11.61-16.31,15.53t-15.84-.95q-6.75-4.86-9.41-19T192.79,180.07Z"/><path class="cls-1" d="M317.62,240.6a31.56,31.56,0,0,1-10-2.51q-4.08-1.87-6-7.21c-1.26-3.55-1.62-8.63-1.1-15.21s2.14-15.42,4.86-26.51q3.14-13.8,7.22-29.79t7.84-30.74q3.76-14.75,6.74-26.67t4.24-17.56q4.38-16.94,6.58-28.07t3.77-18c.83-5.43,1.57-9.72,2.19-12.86h.63a5.88,5.88,0,0,0,1.88-.31q16.93-2.51,20.86,8.62T364.05,70.6q-1.57,5-3,11t-3.3,13.17l-5.33,20.7Q361.22,99.78,370.32,91T386,79.69q11.92-4.38,19.92-1.25a21.12,21.12,0,0,1,11.76,11.29q3.76,8.16,3.45,19.92a80.17,80.17,0,0,1-4.7,24.31,98.73,98.73,0,0,1-10.2,20.23A88.12,88.12,0,0,1,394,168.93a81.35,81.35,0,0,1-12.39,9.88A67.9,67.9,0,0,1,371,184.46a106.51,106.51,0,0,0,4.86,22.27q3.3,9.41,7.37,14.43t8.63,4.7q4.54-.3,9.25-7.53,3.13-4.7,5.49-9.09c1.57-2.93,3.18-6.17,4.86-9.73s3.45-7.47,5.33-11.76,4.08-9.46,6.59-15.52q7.21-17.25,7.21-7.53,0,3.45-4.39,14.11-3.45,8.16-5.8,13.8t-4.71,10.51c-1.56,3.25-3.24,6.43-5,9.57s-3.92,6.58-6.43,10.35q-9.1,14.75-19.14,18.5t-18.82-2.82q-8.78-6.58-15.37-23.52t-8.78-43.6l.63-.32a42.7,42.7,0,0,0,13-5.64,79.68,79.68,0,0,0,12.07-9.41A88.22,88.22,0,0,0,378,144.78q4.53-6.12,8-11.76a67.89,67.89,0,0,0,7.22-16.94,62.59,62.59,0,0,0,2.51-16.47q0-7.36-2.36-11.6c-1.56-2.83-3.92-3.71-7.05-2.67a34.14,34.14,0,0,0-9.26,5.49,60.92,60.92,0,0,0-11.44,12.39,129.21,129.21,0,0,0-11.92,20.7,192.39,192.39,0,0,0-11,30.43l-2.83,10a2.2,2.2,0,0,1-.15.94,2.17,2.17,0,0,0-.16,1c-.21,1-.42,1.93-.63,2.66s-.42,1.41-.62,2L320.45,240.6Z"/><path class="cls-1" d="M422.39,180.07q1.25-5.34,3.13-13.33t4.24-16.94q2.36-8.94,4.7-18.51T439,112.94q3.76-15,7.84-22.89t8.32-10.51A10.74,10.74,0,0,1,463.79,78a34.69,34.69,0,0,1,8.78,3.61,10.51,10.51,0,0,0,2.83,1.88l1.25.63q-.94,2.82-3.76,13.17t-7.06,26.19q-4.23,15.84-9.41,35.6t-10.51,41.41q-2.51,10.35-2,16c.32,3.77,1.2,6.23,2.67,7.37s3.19,1.21,5.18.16a15,15,0,0,0,5.48-5.65,184.05,184.05,0,0,0,12.24-23.68q6-13.64,11.29-28.23t9.72-28.54q4.4-13.95,7.53-24.94,3.76-15,7.84-22.89t8.31-10.51A10.77,10.77,0,0,1,522.76,78a40.2,40.2,0,0,1,9.1,3.61,6.63,6.63,0,0,0,1.41,1.09c.52.32,1,.58,1.41.79a3.62,3.62,0,0,1,.94.63q-.95,2.82-3.76,13.17t-7.06,26.19q-4.23,15.84-9.25,35.6t-10.36,41.41q-2.51,10.35-2.19,16c.2,3.77,1,6.23,2.35,7.37s3,1.21,5,.16a15.06,15.06,0,0,0,5.49-5.65q3.14-4.7,5.49-9.09c1.57-2.93,3.18-6.17,4.86-9.73s3.45-7.47,5.33-11.76,4.08-9.46,6.59-15.52q7.22-17.25,7.21-7.53,0,3.45-4.39,14.11-3.45,8.16-5.8,13.8t-4.71,10.51c-1.56,3.25-3.24,6.43-5,9.57S521.51,219.27,519,223q-7.23,11.61-16.16,15.53T487,237.62q-6.9-4.86-9.41-19t3.77-38.58a1.83,1.83,0,0,1,.31-1.26q-4.71,11.61-10,22.9T460.34,223q-7.21,11.61-16.31,15.53t-15.84-.95q-6.75-4.86-9.41-19T422.39,180.07Z"/><path class="cls-1" d="M549.11,244.68a4.56,4.56,0,0,1-1.89-.31A34,34,0,0,1,537,241.86q-4.23-1.89-6-7.22t-.94-15q.78-9.72,4.86-26.35,3.13-13.8,5.33-22.74t3.61-15.21q1.41-6.27,2.51-11.14T549.11,134q4.38-16.94,6.58-28.07t3.77-18c.83-5.44,1.57-9.72,2.19-12.86h.63a5.13,5.13,0,0,0,1.57-.31,27.59,27.59,0,0,1,11.92.62,12.27,12.27,0,0,1,7.53,6.9q2.51,5.34,2.19,14.43t-4.08,23.21a.65.65,0,0,1-.15.47.64.64,0,0,0-.16.47,144.31,144.31,0,0,1,10-15.68,94.49,94.49,0,0,1,11-12.55q9.1-8.14,17.88-9.72t14,5.49q5.17,7.07,5.49,23.68t-7.21,44.86q-2.52,8.77-4.08,14.27t-2.67,10c-.73,3-1.46,6-2.19,8.79s-1.52,6.32-2.36,10.51q-2.5,10.35-2.19,16t2.19,7.37c1.26,1.15,2.88,1.21,4.87.16a15.06,15.06,0,0,0,5.49-5.65c2.08-3.13,3.92-6.16,5.48-9.09s3.19-6.17,4.87-9.73,3.45-7.47,5.33-11.76,4.08-9.46,6.59-15.52q7.2-17.25,7.21-7.53,0,3.45-4.39,14.11-3.45,8.16-5.8,13.8t-4.71,10.51c-1.57,3.25-3.24,6.43-5,9.57s-3.92,6.58-6.43,10.35q-7.21,11.61-16.15,16t-15.68.15q-6.75-4.23-9.1-17.72t3.61-37.95L604.31,155q5.64-20.7,8-33.72t1.88-19.6q-.47-6.59-3.14-7.21c-1.77-.42-4.13.73-7,3.45q-9.11,8.77-17.72,24.31a172.47,172.47,0,0,0-14.59,36.22l-1.88,7.85-1.88,6.9q-2.83,10.35-5.65,22.11t-5.49,22.11q-2.67,10.35-4.55,17.88c-1.25,5-2,8.16-2.19,9.41Z"/><path class="cls-1" d="M673,89.73a11.06,11.06,0,0,0,3.14-.31c.63-.21,1.14-.94,1.57-2.2q5-18.5,12.7-31.68a106.9,106.9,0,0,1,16.31-21.8A61.05,61.05,0,0,1,724.29,21a50.5,50.5,0,0,1,16.93-4.7,29.27,29.27,0,0,1,14.12,2,19.37,19.37,0,0,1,9.25,8,32,32,0,0,1,3.61,21,40.15,40.15,0,0,1-9.57,20.7,27.71,27.71,0,0,1-7.06,6.12,22.17,22.17,0,0,1-8,3,17,17,0,0,1-7.69-.48,10.67,10.67,0,0,1-5.8-4.23,13.79,13.79,0,0,1-3-7.84,13.31,13.31,0,0,1,7.06-12.55,10.92,10.92,0,0,1,7.21-1.25,21.32,21.32,0,0,0,10.35-.63,15,15,0,0,0,7.22-4.7A13.27,13.27,0,0,0,761.77,38a15.55,15.55,0,0,0-2.51-9.1,10.82,10.82,0,0,0-9.57-5.33q-6.12,0-13.33,6.27t-14.9,19.45q-7.68,13.17-14.27,33.88-1.26,4.69-.63,5.64c.42.63,1.57.94,3.45.94h1.57q8.77,0,10.82.47c1.36.32,1.62,1,.79,2s-2.41,1.83-4.71,2.35a33.53,33.53,0,0,1-7.53.79h-2.82c-2.09,0-3.45.37-4.08,1.1s-1.46,3-2.5,6.74h-.32L665.79,234.64q-6,22.91-14,38t-16.47,23.84q-8.46,8.78-16.94,12.07a39.43,39.43,0,0,1-16,3,28.06,28.06,0,0,1-13.18-3.61,23.3,23.3,0,0,1-8.47-8,28.28,28.28,0,0,1-4.07-20.71,40.3,40.3,0,0,1,9.09-20.07q6.29-7.22,14.12-9.1t12.54,4.39a12.66,12.66,0,0,1,2.83,7.69,13.53,13.53,0,0,1-1.88,7.06,13.3,13.3,0,0,1-5,4.86,8.53,8.53,0,0,1-6.59.78q-6-1.25-10.19.47a13.63,13.63,0,0,0-6.43,5,13.31,13.31,0,0,0-2.2,7.53,14.48,14.48,0,0,0,2.82,8.31,11.33,11.33,0,0,0,8.94,5.18q5.81.46,13.18-6.12t15.21-21.33q7.85-14.75,15.06-40.77l35.75-131.43c.63-2.92.73-4.7.32-5.33s-1.47-.94-3.14-.94h-1.57c-5.86,0-9.46-.16-10.82-.47s-1.62-1-.78-2,2.4-1.83,4.7-2.35a34.12,34.12,0,0,1,7.53-.79Z"/><path class="cls-1" d="M722.09,118a4.9,4.9,0,0,0,1.91-.38,2.83,2.83,0,0,0,1.4-1.66q2.29-9.42,3.57-15.8t2-10.45A58.94,58.94,0,0,0,732.28,82h.51a2.89,2.89,0,0,0,1.28-.26q12.23-1.77,16.18,6t-.64,26.89c-.34,1.53-.25,2.46.26,2.8a5.41,5.41,0,0,0,2.8.51H754a57.44,57.44,0,0,1,8.79.38c1.1.26,1.31.81.63,1.66a6.66,6.66,0,0,1-3.82,1.91,27.28,27.28,0,0,1-6.11.64h-2.3a8.17,8.17,0,0,0-2.93.38c-.6.26-1.06,1.06-1.4,2.42Q745,132,742.09,142.94T736,165.87q-3.19,12-6.12,23.45t-4.71,18.6q-2.05,8.42-1.79,13t1.91,6q1.66,1.41,4.08.13a12.22,12.22,0,0,0,4.46-4.59q2.55-3.82,4.46-7.39c1.28-2.38,2.59-5,4-7.9s2.81-6.07,4.33-9.56,3.32-7.68,5.36-12.61q5.85-13.25,5.86-6.12,0,2.81-3.57,11.47-2.81,6.63-4.71,11.21t-3.83,8.54c-1.27,2.64-2.63,5.22-4.08,7.77s-3.18,5.35-5.22,8.41q-5.86,9.43-13.12,12.62t-12.87-.77q-5.61-3.94-7.65-15.41t3.06-31.35q2.29-8.93,4.33-16.57t4.08-14.91q2-7.26,3.95-14.52t4-15.42l1-4.33c.17-1.36,0-2.21-.38-2.55a3.55,3.55,0,0,0-2.17-.51h-1.27a57.51,57.51,0,0,1-8.8-.38c-1.1-.26-1.31-.81-.63-1.66a6.62,6.62,0,0,1,3.82-1.91,27.91,27.91,0,0,1,6.12-.64Z"/></g></g></svg>