<svg xmlns="http://www.w3.org/2000/svg" viewBox="0 0 120.04 130.07"><defs><style>.cls-1{fill:#3279f3;}</style></defs><title>Asset 4</title><g id="Layer_2" data-name="Layer 2"><g id="Layer_1-2" data-name="Layer 1"><path class="cls-1" d="M95.3,4A29.16,29.16,0,0,1,105,.33a17.22,17.22,0,0,1,8.16.32,9.76,9.76,0,0,1,5.36,4.16,12.13,12.13,0,0,1,1.44,7.84,18.84,18.84,0,0,1-3.12,8.48A22,22,0,0,1,109.14,28a38.13,38.13,0,0,1-12.56,4.16,68.52,68.52,0,0,1-17.76.32,163.7,163.7,0,0,0-6.4,16.08A194.33,194.33,0,0,0,67,67.85a161.16,161.16,0,0,1-6.32,20.24,116.05,116.05,0,0,1-7.92,16.56,54.47,54.47,0,0,0,5.6,5.12,53.37,53.37,0,0,0,7.12,4.88,30.46,30.46,0,0,0,7.44,3.12,10.21,10.21,0,0,0,6.72-.32q5.59-2.4,10.24-9.52t9.76-21.68a31.64,31.64,0,0,1,2.48-5.44c.48-.64.77-.21.88,1.28a7.64,7.64,0,0,1-.24,2.72,37.53,37.53,0,0,1-1.36,4.64q-2.4,6.24-4.64,11.92a80,80,0,0,1-4.88,10.32,40.63,40.63,0,0,1-5.92,8.08,21.63,21.63,0,0,1-7.6,5.2,19,19,0,0,1-8.16,1.44,28.58,28.58,0,0,1-8.56-1.68,38.43,38.43,0,0,1-8.24-4.16A42.29,42.29,0,0,1,46,114.41,48.7,48.7,0,0,1,32.1,126.73q-7.2,4-13.92,3.2A20.68,20.68,0,0,1,9,126.65a16.31,16.31,0,0,1-5.76-6.48,15.26,15.26,0,0,1-1.28-8.56,19,19,0,0,1,4.4-9.52,19,19,0,0,1,7.44-5.92,30.06,30.06,0,0,1,9.68-2.56,36.53,36.53,0,0,1,10.64.64,35,35,0,0,1,10.32,3.84Q46.65,92,48.74,84.41T52.9,67.53a100.82,100.82,0,0,1,6.48-20.08,111.17,111.17,0,0,1,9-16.4c-1.17-.21-2.35-.45-3.52-.72s-2.35-.56-3.52-.88Q43.94,25.3,32.1,27.37T13.54,35.21A25.75,25.75,0,0,0,4.9,48.89a28.09,28.09,0,0,0,.48,15.44,19.88,19.88,0,0,0,6.48,9.6,16.85,16.85,0,0,0,10.08,3.92,18,18,0,0,0,11-3.52q5.52-3.75,9.36-12.72a7.52,7.52,0,0,1,1-1.12,10,10,0,0,0,1-.72,1.54,1.54,0,0,1,1-.4q1.92,0,.48,3.84-3.84,9-9.92,13.28a22.76,22.76,0,0,1-12.4,4.56A20.28,20.28,0,0,1,11.3,77.53,25.4,25.4,0,0,1,2.18,66.41,28.9,28.9,0,0,1,0,55.77a34.14,34.14,0,0,1,2.16-13A39.53,39.53,0,0,1,9.86,30.17a39,39,0,0,1,14.32-9.84q9-3.84,22.24-4.56T77.7,19.05a81.55,81.55,0,0,1,9.52-9.28A70.48,70.48,0,0,1,95.3,4ZM20.9,126.25q5.12.31,9.92-4t9.44-13.92q-6.72-6.08-13.84-7.12a13.2,13.2,0,0,0-12.24,4.56,14.44,14.44,0,0,0-3.36,6.72,13.09,13.09,0,0,0,.32,6.48,10.85,10.85,0,0,0,3.44,5A10.18,10.18,0,0,0,20.9,126.25ZM97.06,7.37q-5.44,2.88-11.84,13.12a94.57,94.57,0,0,0,15,1.92,29.28,29.28,0,0,0,9.44-1,9.32,9.32,0,0,0,5-3.28,10.64,10.64,0,0,0,1.84-5,9,9,0,0,0-.8-5,7.18,7.18,0,0,0-3.52-3.44A11.48,11.48,0,0,0,106,4,25.39,25.39,0,0,0,97.06,7.37Z"/></g></g></svg>